<?xml version="1.0" encoding="UTF-8"?>
<svg xmlns="http://www.w3.org/2000/svg" xmlns:xlink="http://www.w3.org/1999/xlink" version="1.1" id="Capa_1" x="0px" y="0px" viewBox="0 0 58 58" style="enable-background:new 0 0 58 58;" xml:space="preserve" width="512px" height="512px" class=""><g><g>
	<path d="M14.068,18.064c0.442,0.282,1.026,0.175,1.339-0.246C16.269,16.663,17.579,16,19,16c1.461,0,2.837,0.717,3.682,1.919   c0.375,0.532,1.262,0.532,1.637,0C25.163,16.717,26.539,16,28,16c1.61,0,3.107,0.873,3.909,2.277   c0.179,0.314,0.512,0.504,0.868,0.504c0.034,0,0.067-0.001,0.101-0.005c0.393-0.04,0.726-0.307,0.85-0.683   C34.336,16.244,36.053,15,38,15c1.522,0,2.929,0.764,3.764,2.044c0.15,0.231,0.39,0.389,0.661,0.438   c0.272,0.047,0.551-0.018,0.772-0.181c2.598-1.928,4.365-4.279,5.253-6.99c0.171-0.521-0.109-1.082-0.628-1.258   c-2.598-0.884-4.988-1.332-7.102-1.332c-2.607,0-4.374,0.681-5.488,1.359c-1.106-5.75-4.852-8.067-6.342-8.776   C28.707,0.121,28.463,0,28.187,0h-0.211c-0.276,0-0.52,0.12-0.703,0.305c-1.49,0.708-5.237,3.024-6.343,8.776   c-1.114-0.679-2.881-1.359-5.487-1.359c-2.114,0-4.504,0.448-7.102,1.332c-0.519,0.176-0.799,0.737-0.628,1.258   C8.714,13.373,10.913,16.054,14.068,18.064z" data-original="#000000" class="active-path" fill="#000000"/>
	<path d="M51.5,28.5c0-2.246-1.142-4.296-3.018-5.484c-0.153-2.075-1.295-3.899-2.999-4.982c-0.349,0.299-0.713,0.591-1.094,0.873   c-0.523,0.387-1.141,0.59-1.789,0.59c-0.172,0-0.346-0.015-0.518-0.045c-0.822-0.147-1.544-0.627-1.994-1.317   C39.625,17.425,38.844,17,38,17c-1.081,0-2.035,0.691-2.373,1.719c-0.37,1.125-1.371,1.929-2.549,2.047   c-0.1,0.01-0.199,0.015-0.301,0.015c-1.074,0-2.072-0.58-2.605-1.513C29.725,18.486,28.893,18,28,18   c-0.811,0-1.575,0.399-2.045,1.069c-0.552,0.783-1.469,1.249-2.455,1.249s-1.903-0.466-2.453-1.247C20.575,18.399,19.811,18,19,18   c-0.795,0-1.501,0.36-1.989,1.014c-0.901,1.212-2.737,1.552-4.018,0.737c-0.686-0.437-1.318-0.911-1.922-1.404   C9.501,19.54,8.5,21.408,8.5,23.5c0,0.406,0.039,0.812,0.115,1.211C7.28,25.936,6.5,27.681,6.5,29.5   c0,1.746,0.713,3.416,1.945,4.629C7.831,35.14,7.5,36.307,7.5,37.5c0,2.794,1.741,5.197,4.283,6.107   C11.596,44.22,11.5,44.859,11.5,45.5c0,2.791,1.768,5.235,4.365,6.135C16.765,54.232,19.209,56,22,56   c0.972,0,1.917-0.214,2.783-0.626C25.998,57.015,27.917,58,30,58c1.942,0,3.749-0.856,4.978-2.326C35.631,55.891,36.308,56,37,56   c3.073,0,5.724-2.204,6.354-5.146c2.942-0.631,5.146-3.281,5.146-6.354c0-0.478-0.054-0.954-0.161-1.422   c1.945-1.163,3.161-3.267,3.161-5.578c0-1.689-0.663-3.3-1.815-4.5C50.837,31.8,51.5,30.189,51.5,28.5z M26.504,29.201   c0.548-0.047,1.035,0.361,1.082,0.911c0.152,1.774,1.547,2.574,2.696,2.72c1.142,0.149,2.686-0.277,3.276-1.952   c0.183-0.521,0.756-0.795,1.275-0.61c0.521,0.184,0.794,0.754,0.61,1.275c-0.823,2.336-2.872,3.313-4.745,3.313   c-0.227,0-0.45-0.014-0.669-0.042c-2.036-0.26-4.197-1.762-4.435-4.534C25.546,29.733,25.954,29.249,26.504,29.201z M13.764,29.584   c-0.374-0.406-0.348-1.039,0.059-1.413c0.406-0.375,1.039-0.348,1.413,0.059c1.206,1.309,2.798,1.088,3.796,0.502   c0.992-0.584,1.954-1.864,1.396-3.548c-0.174-0.524,0.111-1.09,0.635-1.263c0.525-0.174,1.09,0.111,1.263,0.635   c0.872,2.635-0.517,4.862-2.281,5.9c-0.776,0.457-1.718,0.739-2.689,0.739C16.114,31.195,14.822,30.733,13.764,29.584z    M21.698,44.196c-0.227,0-0.45-0.014-0.669-0.042c-2.037-0.259-4.198-1.762-4.436-4.534c-0.047-0.55,0.36-1.035,0.911-1.082   c0.549-0.048,1.035,0.36,1.082,0.911c0.152,1.774,1.547,2.574,2.696,2.721c1.142,0.144,2.686-0.279,3.276-1.952   c0.183-0.521,0.756-0.794,1.275-0.61c0.521,0.184,0.794,0.754,0.61,1.275C25.62,43.219,23.571,44.196,21.698,44.196z    M31.982,51.729c-0.74,0.397-1.618,0.638-2.521,0.638c-1.303,0-2.657-0.5-3.722-1.751c-0.358-0.42-0.308-1.052,0.113-1.41   c0.419-0.359,1.052-0.308,1.41,0.113c1.155,1.355,2.755,1.195,3.774,0.648c1.014-0.545,2.024-1.787,1.532-3.492   c-0.153-0.531,0.153-1.085,0.684-1.238c0.531-0.151,1.085,0.152,1.238,0.684C35.259,48.588,33.785,50.759,31.982,51.729z    M40.954,42.784c-0.776,0.457-1.718,0.739-2.689,0.739c-1.243,0-2.535-0.461-3.593-1.61c-0.374-0.406-0.348-1.039,0.059-1.413   c0.407-0.374,1.039-0.347,1.413,0.059c1.206,1.309,2.799,1.089,3.796,0.502c0.992-0.584,1.954-1.864,1.396-3.548   c-0.174-0.524,0.111-1.09,0.635-1.263c0.524-0.174,1.09,0.111,1.263,0.635C44.106,39.519,42.717,41.746,40.954,42.784z    M45.24,27.564c-1.058,1.163-2.357,1.63-3.606,1.63c-0.958,0-1.886-0.274-2.653-0.72c-1.776-1.03-3.184-3.254-2.326-5.9   c0.169-0.525,0.736-0.813,1.259-0.643c0.525,0.17,0.813,0.734,0.643,1.259c-0.549,1.694,0.426,2.973,1.427,3.554   c0.996,0.578,2.583,0.789,3.777-0.526c0.372-0.407,1.003-0.438,1.413-0.067C45.582,26.523,45.611,27.155,45.24,27.564z" data-original="#000000" class="active-path" fill="#000000"/>
</g></g> </svg>