<?xml version="1.0" encoding="UTF-8"?>
<svg xmlns="http://www.w3.org/2000/svg" xmlns:xlink="http://www.w3.org/1999/xlink" version="1.1" id="Capa_1" x="0px" y="0px" viewBox="0 0 449.38 449.38" style="enable-background:new 0 0 449.38 449.38;" xml:space="preserve" width="512px" height="512px" class=""><g transform="matrix(-1, -2.46519e-32, -2.46519e-32, 1, 449.38, 2.84217e-14)"><g>
	<g id="Layer_5_25_">
		<g>
			<path d="M434.557,45.035h-57.375c-21.038,0-24.982,9.682-27.492,22.591l-46.498,235.477c0,0-6.216,12.67-18.169,12.67     c-67.296,0-269.065,0-269.065,0c-8.248,0-14.941,6.694-14.941,14.941s6.694,14.941,14.941,14.941h9.682     c10.399,0,6.694,6.096,5.977,9.443c-0.598,2.63-0.837,5.379-0.837,8.248c0,22.591,18.408,40.999,40.999,40.999     s40.999-18.408,40.999-40.999c0-2.869-0.359-5.737-0.837-8.487c-0.717-3.227-3.825-9.323,5.14-9.323h85.226     c5.379,0,3.347,3.825,2.749,5.857c-1.076,3.705-1.793,7.65-1.793,11.834c0,22.591,18.408,40.999,40.999,40.999     s40.999-18.408,40.999-40.999c0-3.945-0.598-7.77-1.554-11.355c-0.598-2.152-1.913-6.335,3.825-6.335h14.583     c21.396,0,24.982-9.682,27.492-22.591l47.932-242.409c0,0,1.076-5.737,8.367-5.737c12.192,0,48.53,0,48.53,0     c8.248,0,14.941-6.694,14.941-14.941C449.498,51.729,442.805,45.035,434.557,45.035z" data-original="#000000" class="active-path" data-old_color="#ffd200" fill="#ffd200"/>
			<path d="M311.201,76.472c-3.227-3.945-8.128-6.096-13.507-6.096H17.752c-5.259,0-10.16,2.152-13.507,5.977     c-3.347,3.825-4.781,8.965-4.064,14.224l26.655,181.927c1.434,10.041,10.519,17.81,20.559,17.81H257.89     c9.921,0,19.125-7.65,21.038-17.332l35.74-182.166C315.743,85.556,314.428,80.416,311.201,76.472z M200.515,197.198h-20.201     c0,0-4.542,0.12-4.542,3.586c0,5.259,0,21.157,0,21.157c0,9.921-8.009,18.049-18.049,18.049s-18.049-8.009-18.049-18.049     c0,0,0-15.659,0-20.918c0-4.184-3.945-3.825-3.945-3.825h-20.918c-9.921,0-18.049-8.009-18.049-18.049     c0-9.921,8.009-18.049,18.049-18.049h20.32c0,0,4.423,0.239,4.423-4.184c0-5.14,0-20.679,0-20.679     c0-9.921,8.009-18.049,18.049-18.049s18.049,8.009,18.049,18.049c0,0,0,16.495,0,21.994c0,2.988,3.825,2.749,3.825,2.749h20.918     c9.921,0,18.049,8.009,18.049,18.049C218.564,189.07,210.436,197.198,200.515,197.198z" data-original="#000000" class="active-path" data-old_color="#ffd200" fill="#ffd200"/>
		</g>
	</g>
</g></g> </svg>